<?xml version="1.0" encoding="UTF-8" standalone="no"?>
<!DOCTYPE svg PUBLIC "-//W3C//DTD SVG 1.1//EN"
 "http://www.w3.org/Graphics/SVG/1.1/DTD/svg11.dtd">
<!-- Generated by graphviz version 12.1.1 (20240910.0053)
 -->
<!-- Title: a Pages: 1 -->
<svg width="896pt" height="377pt"
 viewBox="0.00 0.00 896.03 376.62" xmlns="http://www.w3.org/2000/svg" xmlns:xlink="http://www.w3.org/1999/xlink">
<g id="graph0" class="graph" transform="scale(1 1) rotate(0) translate(4 372.62)">
<title>a</title>
<polygon fill="white" stroke="none" points="-4,4 -4,-372.62 892.03,-372.62 892.03,4 -4,4"/>
<!-- 4000000012473589 -->
<g id="node1" class="node">
<title>4000000012473589</title>
<ellipse fill="none" stroke="black" cx="141.74" cy="-288.46" rx="37.2" ry="18"/>
<text text-anchor="middle" x="141.74" y="-285.93" font-family="Helvetica,sans-Serif" font-size="7.00">4000000012473589</text>
</g>
<!-- 4000000012475212.0 -->
<g id="node2" class="node">
<title>4000000012475212.0</title>
<ellipse fill="none" stroke="black" cx="224.12" cy="-244.42" rx="40.52" ry="18"/>
<text text-anchor="middle" x="224.12" y="-241.89" font-family="Helvetica,sans-Serif" font-size="7.00">4000000012475212.0</text>
</g>
<!-- 4000000012475212.1 -->
<g id="node3" class="node">
<title>4000000012475212.1</title>
<ellipse fill="none" stroke="black" cx="313.2" cy="-282.71" rx="40.52" ry="18"/>
<text text-anchor="middle" x="313.2" y="-280.18" font-family="Helvetica,sans-Serif" font-size="7.00">4000000012475212.1</text>
</g>
<!-- 4000000012475212.2 -->
<g id="node4" class="node">
<title>4000000012475212.2</title>
<ellipse fill="none" stroke="black" cx="402.3" cy="-278.42" rx="40.52" ry="18"/>
<text text-anchor="middle" x="402.3" y="-275.89" font-family="Helvetica,sans-Serif" font-size="7.00">4000000012475212.2</text>
</g>
<!-- 4000000012475212.3 -->
<g id="node5" class="node">
<title>4000000012475212.3</title>
<ellipse fill="none" stroke="black" cx="487.07" cy="-234.38" rx="40.52" ry="18"/>
<text text-anchor="middle" x="487.07" y="-231.86" font-family="Helvetica,sans-Serif" font-size="7.00">4000000012475212.3</text>
</g>
<!-- 4000000012475212.4 -->
<g id="node6" class="node">
<title>4000000012475212.4</title>
<ellipse fill="none" stroke="black" cx="457.93" cy="-189.68" rx="40.52" ry="18"/>
<text text-anchor="middle" x="457.93" y="-187.15" font-family="Helvetica,sans-Serif" font-size="7.00">4000000012475212.4</text>
</g>
<!-- 4000000012475212.5 -->
<g id="node7" class="node">
<title>4000000012475212.5</title>
<ellipse fill="none" stroke="black" cx="537.92" cy="-145.64" rx="40.52" ry="18"/>
<text text-anchor="middle" x="537.92" y="-143.12" font-family="Helvetica,sans-Serif" font-size="7.00">4000000012475212.5</text>
</g>
<!-- 4000000012475212.6 -->
<g id="node8" class="node">
<title>4000000012475212.6</title>
<ellipse fill="none" stroke="black" cx="627.05" cy="-148.32" rx="40.52" ry="18"/>
<text text-anchor="middle" x="627.05" y="-145.79" font-family="Helvetica,sans-Serif" font-size="7.00">4000000012475212.6</text>
</g>
<!-- 4000000012475212.7 -->
<g id="node9" class="node">
<title>4000000012475212.7</title>
<ellipse fill="none" stroke="black" cx="656.94" cy="-104.06" rx="40.52" ry="18"/>
<text text-anchor="middle" x="656.94" y="-101.54" font-family="Helvetica,sans-Serif" font-size="7.00">4000000012475212.7</text>
</g>
<!-- 4000000012475212.8 -->
<g id="node10" class="node">
<title>4000000012475212.8</title>
<ellipse fill="none" stroke="black" cx="746.02" cy="-109.98" rx="40.52" ry="18"/>
<text text-anchor="middle" x="746.02" y="-107.46" font-family="Helvetica,sans-Serif" font-size="7.00">4000000012475212.8</text>
</g>
<!-- 4000000012473353 -->
<g id="node11" class="node">
<title>4000000012473353</title>
<ellipse fill="none" stroke="black" cx="778.19" cy="-62.04" rx="37.2" ry="18"/>
<text text-anchor="middle" x="778.19" y="-59.51" font-family="Helvetica,sans-Serif" font-size="7.00">4000000012473353</text>
</g>
<!-- attr0 -->
<g id="node12" class="node">
<title>attr0</title>
<polygon fill="none" stroke="black" points="96.45,-328.27 0,-328.27 0,-292.27 96.45,-292.27 96.45,-328.27"/>
<text text-anchor="middle" x="48.23" y="-307.74" font-family="Helvetica,sans-Serif" font-size="7.00">xyz:299176000,378609000,0</text>
</g>
<!-- attr1 -->
<g id="node13" class="node">
<title>attr1</title>
<polygon fill="none" stroke="black" points="231.25,-208.51 134.8,-208.51 134.8,-172.51 231.25,-172.51 231.25,-208.51"/>
<text text-anchor="middle" x="183.02" y="-187.98" font-family="Helvetica,sans-Serif" font-size="7.00">xyz:299187300,378546896,0</text>
</g>
<!-- attr2 -->
<g id="node14" class="node">
<title>attr2</title>
<polygon fill="none" stroke="black" points="332.06,-368.62 235.61,-368.62 235.61,-332.62 332.06,-332.62 332.06,-368.62"/>
<text text-anchor="middle" x="283.84" y="-348.09" font-family="Helvetica,sans-Serif" font-size="7.00">xyz:299202500 378437296,0</text>
</g>
<!-- attr3 -->
<g id="node15" class="node">
<title>attr3</title>
<polygon fill="none" stroke="black" points="437.73,-366.02 342.03,-366.02 342.03,-330.02 437.73,-330.02 437.73,-366.02"/>
<text text-anchor="middle" x="389.88" y="-345.5" font-family="Helvetica,sans-Serif" font-size="7.00">xyz:299226116 378314543,0</text>
</g>
<!-- attr4 -->
<g id="node16" class="node">
<title>attr4</title>
<polygon fill="none" stroke="black" points="546.6,-319.41 450.9,-319.41 450.9,-283.41 546.6,-283.41 546.6,-319.41"/>
<text text-anchor="middle" x="498.75" y="-298.89" font-family="Helvetica,sans-Serif" font-size="7.00">xyz:299270000 378110000,0</text>
</g>
<!-- attr5 -->
<g id="node17" class="node">
<title>attr5</title>
<polygon fill="none" stroke="black" points="480.91,-145.38 385.96,-145.38 385.96,-109.38 480.91,-109.38 480.91,-145.38"/>
<text text-anchor="middle" x="433.44" y="-124.85" font-family="Helvetica,sans-Serif" font-size="7.00">xyz:299281112 378070887,0</text>
</g>
<!-- attr6 -->
<g id="node18" class="node">
<title>attr6</title>
<polygon fill="none" stroke="black" points="567.82,-95.86 472.12,-95.86 472.12,-59.86 567.82,-59.86 567.82,-95.86"/>
<text text-anchor="middle" x="519.97" y="-75.34" font-family="Helvetica,sans-Serif" font-size="7.00">xyz:299297501 377991125,0</text>
</g>
<!-- attr7 -->
<g id="node19" class="node">
<title>attr7</title>
<polygon fill="none" stroke="black" points="700.7,-228.94 605.75,-228.94 605.75,-192.94 700.7,-192.94 700.7,-228.94"/>
<text text-anchor="middle" x="653.22" y="-208.42" font-family="Helvetica,sans-Serif" font-size="7.00">xyz:299309884 377924111,0</text>
</g>
<!-- attr8 -->
<g id="node20" class="node">
<title>attr8</title>
<polygon fill="none" stroke="black" points="706.41,-51.87 609.96,-51.87 609.96,-15.87 706.41,-15.87 706.41,-51.87"/>
<text text-anchor="middle" x="658.18" y="-31.34" font-family="Helvetica,sans-Serif" font-size="7.00">xyz:299353589 377696844,0</text>
</g>
<!-- attr9 -->
<g id="node21" class="node">
<title>attr9</title>
<polygon fill="none" stroke="black" points="840.67,-177.16 744.22,-177.16 744.22,-141.16 840.67,-141.16 840.67,-177.16"/>
<text text-anchor="middle" x="792.44" y="-156.64" font-family="Helvetica,sans-Serif" font-size="7.00">xyz:299359781 377666979,0</text>
</g>
<!-- attr10 -->
<g id="node22" class="node">
<title>attr10</title>
<polygon fill="none" stroke="black" points="888.03,-36 791.58,-36 791.58,0 888.03,0 888.03,-36"/>
<text text-anchor="middle" x="839.81" y="-15.47" font-family="Helvetica,sans-Serif" font-size="7.00">xyz:299368000 377627000,0</text>
</g>
<!-- 4000000012473589&#45;&gt;4000000012475212.0 -->
<g id="edge1" class="edge">
<title>4000000012473589&#45;&gt;4000000012475212.0</title>
<path fill="none" stroke="black" stroke-width="0.2" d="M164.17,-273.63C171.06,-269.66 179.44,-265.48 193.94,-258.6"/>
<polygon fill="black" stroke="black" stroke-width="0.2" points="195.52,-257.85 194.1,-259.52 194.84,-258.17 193.71,-258.71 193.71,-258.71 193.71,-258.71 194.84,-258.17 193.33,-257.89 195.52,-257.85"/>
</g>
<!-- 4000000012475212.0&#45;&gt;4000000012475212.1 -->
<g id="edge2" class="edge">
<title>4000000012475212.0&#45;&gt;4000000012475212.1</title>
<path fill="none" stroke="black" stroke-width="0.2" d="M241.51,-261.01C250.1,-268.03 258.03,-271.53 273.67,-275.13"/>
<polygon fill="black" stroke="black" stroke-width="0.2" points="275.38,-275.51 273.23,-275.95 274.64,-275.35 273.43,-275.07 273.43,-275.07 273.43,-275.07 274.64,-275.35 273.62,-274.2 275.38,-275.51"/>
</g>
<!-- 4000000012475212.1&#45;&gt;4000000012475212.2 -->
<g id="edge3" class="edge">
<title>4000000012475212.1&#45;&gt;4000000012475212.2</title>
<path fill="none" stroke="black" stroke-width="0.2" d="M350.41,-290.43C354.58,-290.12 359.22,-289.37 364.87,-288.14"/>
<polygon fill="black" stroke="black" stroke-width="0.2" points="366.76,-287.72 365,-289.03 366.02,-287.88 364.8,-288.15 364.8,-288.15 364.8,-288.15 366.02,-287.88 364.61,-287.28 366.76,-287.72"/>
</g>
<!-- 4000000012475212.2&#45;&gt;4000000012475212.3 -->
<g id="edge4" class="edge">
<title>4000000012475212.2&#45;&gt;4000000012475212.3</title>
<path fill="none" stroke="black" stroke-width="0.2" d="M441.08,-272.48C449.37,-269.03 456.9,-263.13 468.53,-252.24"/>
<polygon fill="black" stroke="black" stroke-width="0.2" points="469.79,-251.06 468.95,-253.08 469.24,-251.58 468.34,-252.43 468.34,-252.43 468.34,-252.43 469.24,-251.58 467.72,-251.77 469.79,-251.06"/>
</g>
<!-- 4000000012475212.3&#45;&gt;4000000012475212.4 -->
<g id="edge5" class="edge">
<title>4000000012475212.3&#45;&gt;4000000012475212.4</title>
<path fill="none" stroke="black" stroke-width="0.2" d="M477.53,-216.54C476.08,-214.38 474.34,-211.91 472.13,-208.85"/>
<polygon fill="black" stroke="black" stroke-width="0.2" points="470.99,-207.28 472.89,-208.37 471.43,-207.89 472.16,-208.9 472.16,-208.9 472.16,-208.9 471.43,-207.89 471.44,-209.43 470.99,-207.28"/>
</g>
<!-- 4000000012475212.4&#45;&gt;4000000012475212.5 -->
<g id="edge6" class="edge">
<title>4000000012475212.4&#45;&gt;4000000012475212.5</title>
<path fill="none" stroke="black" stroke-width="0.2" d="M486.05,-176.21C499.33,-169.8 507.47,-165.69 513.95,-161.97"/>
<polygon fill="black" stroke="black" stroke-width="0.2" points="515.35,-161.15 514.07,-162.94 514.7,-161.54 513.62,-162.16 513.62,-162.16 513.62,-162.16 514.7,-161.54 513.17,-161.38 515.35,-161.15"/>
</g>
<!-- 4000000012475212.5&#45;&gt;4000000012475212.6 -->
<g id="edge7" class="edge">
<title>4000000012475212.5&#45;&gt;4000000012475212.6</title>
<path fill="none" stroke="black" stroke-width="0.2" d="M578.55,-143.66C581.03,-143.57 583.31,-143.51 585.43,-143.47"/>
<polygon fill="black" stroke="black" stroke-width="0.2" points="587.25,-143.45 585.27,-144.38 586.5,-143.46 585.25,-143.48 585.25,-143.48 585.25,-143.48 586.5,-143.46 585.24,-142.58 587.25,-143.45"/>
</g>
<!-- 4000000012475212.6&#45;&gt;4000000012475212.7 -->
<g id="edge8" class="edge">
<title>4000000012475212.6&#45;&gt;4000000012475212.7</title>
<path fill="none" stroke="black" stroke-width="0.2" d="M643.61,-131.42C646.15,-128.63 648.05,-126.31 649.55,-124.12"/>
<polygon fill="black" stroke="black" stroke-width="0.2" points="650.59,-122.51 650.26,-124.68 650.18,-123.15 649.51,-124.19 649.51,-124.19 649.51,-124.19 650.18,-123.15 648.75,-123.71 650.59,-122.51"/>
</g>
<!-- 4000000012475212.7&#45;&gt;4000000012475212.8 -->
<g id="edge9" class="edge">
<title>4000000012475212.7&#45;&gt;4000000012475212.8</title>
<path fill="none" stroke="black" stroke-width="0.2" d="M697.87,-102.85C700.98,-102.82 703.77,-102.82 706.32,-102.86"/>
<polygon fill="black" stroke="black" stroke-width="0.2" points="708.17,-102.9 706.15,-103.76 707.41,-102.89 706.17,-102.86 706.17,-102.86 706.17,-102.86 707.41,-102.89 706.19,-101.96 708.17,-102.9"/>
</g>
<!-- 4000000012475212.8&#45;&gt;4000000012473353 -->
<g id="edge10" class="edge">
<title>4000000012475212.8&#45;&gt;4000000012473353</title>
<path fill="none" stroke="black" stroke-width="0.2" d="M762.49,-93.06C766.7,-88.5 769.44,-85.11 771.43,-81.8"/>
<polygon fill="black" stroke="black" stroke-width="0.2" points="772.35,-80.18 772.15,-82.36 771.97,-80.84 771.36,-81.92 771.36,-81.92 771.36,-81.92 771.97,-80.84 770.58,-81.48 772.35,-80.18"/>
</g>
<!-- attr0&#45;&gt;4000000012473589 -->
<g id="edge11" class="edge">
<title>attr0&#45;&gt;4000000012473589</title>
<path fill="none" stroke="black" stroke-width="0.2" d="M96.6,-300.13C99.58,-299.37 102.85,-298.54 106.46,-297.61"/>
<polygon fill="black" stroke="black" stroke-width="0.2" points="108.27,-297.14 106.56,-298.51 107.54,-297.33 106.34,-297.64 106.34,-297.64 106.34,-297.64 107.54,-297.33 106.11,-296.77 108.27,-297.14"/>
</g>
<!-- attr1&#45;&gt;4000000012475212.0 -->
<g id="edge12" class="edge">
<title>attr1&#45;&gt;4000000012475212.0</title>
<path fill="none" stroke="black" stroke-width="0.2" d="M188.11,-208.78C190.82,-216.14 194.3,-220.89 201.84,-227.35"/>
<polygon fill="black" stroke="black" stroke-width="0.2" points="203.21,-228.51 201.1,-227.91 202.63,-228.02 201.68,-227.22 201.68,-227.22 201.68,-227.22 202.63,-228.02 202.26,-226.53 203.21,-228.51"/>
</g>
<!-- attr2&#45;&gt;4000000012475212.1 -->
<g id="edge13" class="edge">
<title>attr2&#45;&gt;4000000012475212.1</title>
<path fill="none" stroke="black" stroke-width="0.2" d="M287.35,-332.35C289.54,-324.65 293.18,-317.38 301.81,-302.32"/>
<polygon fill="black" stroke="black" stroke-width="0.2" points="302.77,-300.66 302.55,-302.84 302.39,-301.32 301.77,-302.39 301.77,-302.39 301.77,-302.39 302.39,-301.32 300.99,-301.95 302.77,-300.66"/>
</g>
<!-- attr3&#45;&gt;4000000012475212.2 -->
<g id="edge14" class="edge">
<title>attr3&#45;&gt;4000000012475212.2</title>
<path fill="none" stroke="black" stroke-width="0.2" d="M391.39,-329.56C392.33,-322.49 394,-314.54 397.65,-298.58"/>
<polygon fill="black" stroke="black" stroke-width="0.2" points="398.05,-296.83 398.48,-298.98 397.88,-297.57 397.6,-298.78 397.6,-298.78 397.6,-298.78 397.88,-297.57 396.72,-298.58 398.05,-296.83"/>
</g>
<!-- attr4&#45;&gt;4000000012475212.3 -->
<g id="edge15" class="edge">
<title>attr4&#45;&gt;4000000012475212.3</title>
<path fill="none" stroke="black" stroke-width="0.2" d="M498.89,-282.92C498.3,-276.22 496.62,-268.93 492.78,-254.86"/>
<polygon fill="black" stroke="black" stroke-width="0.2" points="492.26,-252.97 493.65,-254.66 492.46,-253.7 492.79,-254.9 492.79,-254.9 492.79,-254.9 492.46,-253.7 491.92,-255.13 492.26,-252.97"/>
</g>
<!-- attr5&#45;&gt;4000000012475212.4 -->
<g id="edge16" class="edge">
<title>attr5&#45;&gt;4000000012475212.4</title>
<path fill="none" stroke="black" stroke-width="0.2" d="M445.17,-145.73C447.58,-151.14 449.65,-157.93 452.74,-169.58"/>
<polygon fill="black" stroke="black" stroke-width="0.2" points="453.22,-171.41 451.84,-169.71 453.03,-170.68 452.71,-169.48 452.71,-169.48 452.71,-169.48 453.03,-170.68 453.58,-169.25 453.22,-171.41"/>
</g>
<!-- attr6&#45;&gt;4000000012475212.5 -->
<g id="edge17" class="edge">
<title>attr6&#45;&gt;4000000012475212.5</title>
<path fill="none" stroke="black" stroke-width="0.2" d="M533.38,-96.27C537.75,-104.06 538.78,-111.11 538.58,-125.43"/>
<polygon fill="black" stroke="black" stroke-width="0.2" points="538.54,-127.36 537.68,-125.34 538.55,-126.6 538.58,-125.36 538.58,-125.36 538.58,-125.36 538.55,-126.6 539.48,-125.37 538.54,-127.36"/>
</g>
<!-- attr7&#45;&gt;4000000012475212.6 -->
<g id="edge18" class="edge">
<title>attr7&#45;&gt;4000000012475212.6</title>
<path fill="none" stroke="black" stroke-width="0.2" d="M653.12,-192.63C652.47,-182.6 650.1,-176.71 642.7,-167.05"/>
<polygon fill="black" stroke="black" stroke-width="0.2" points="641.72,-165.79 643.66,-166.82 642.18,-166.39 642.95,-167.37 642.95,-167.37 642.95,-167.37 642.18,-166.39 642.24,-167.92 641.72,-165.79"/>
</g>
<!-- attr8&#45;&gt;4000000012475212.7 -->
<g id="edge19" class="edge">
<title>attr8&#45;&gt;4000000012475212.7</title>
<path fill="none" stroke="black" stroke-width="0.2" d="M665.15,-52.24C667.93,-61.88 667.29,-68.91 663.05,-83.89"/>
<polygon fill="black" stroke="black" stroke-width="0.2" points="662.59,-85.52 662.27,-83.35 662.79,-84.8 663.14,-83.6 663.14,-83.6 663.14,-83.6 662.79,-84.8 664,-83.85 662.59,-85.52"/>
</g>
<!-- attr9&#45;&gt;4000000012475212.8 -->
<g id="edge20" class="edge">
<title>attr9&#45;&gt;4000000012475212.8</title>
<path fill="none" stroke="black" stroke-width="0.2" d="M784.87,-140.84C781.81,-135.22 778.14,-131.24 771.4,-126.3"/>
<polygon fill="black" stroke="black" stroke-width="0.2" points="769.82,-125.16 771.97,-125.6 770.44,-125.61 771.45,-126.33 771.45,-126.33 771.45,-126.33 770.44,-125.61 770.92,-127.06 769.82,-125.16"/>
</g>
<!-- attr10&#45;&gt;4000000012473353 -->
<g id="edge21" class="edge">
<title>attr10&#45;&gt;4000000012473353</title>
<path fill="none" stroke="black" stroke-width="0.2" d="M818.83,-36.36C814.9,-39.13 810.05,-42.29 803.34,-46.5"/>
<polygon fill="black" stroke="black" stroke-width="0.2" points="801.8,-47.46 803.02,-45.64 802.44,-47.06 803.5,-46.4 803.5,-46.4 803.5,-46.4 802.44,-47.06 803.98,-47.17 801.8,-47.46"/>
</g>
</g>
</svg>
